<?xml version="1.0" standalone="no"?>
<!DOCTYPE svg PUBLIC "-//W3C//DTD SVG 20010904//EN"
 "http://www.w3.org/TR/2001/REC-SVG-20010904/DTD/svg10.dtd">
<svg version="1.0" xmlns="http://www.w3.org/2000/svg"
 width="225.000000pt" height="225.000000pt" viewBox="0 0 225.000000 225.000000"
 preserveAspectRatio="xMidYMid meet">
<metadata>
Created by potrace 1.14, written by Peter Selinger 2001-2017
</metadata>
<g transform="translate(0.000000,225.000000) scale(0.100000,-0.100000)"
fill="#000000" stroke="none">
<path d="M973 1725 c-133 -29 -240 -116 -302 -244 -35 -73 -36 -80 -36 -186 0
-88 6 -132 29 -223 26 -105 30 -112 50 -106 11 4 22 7 23 8 1 1 -12 55 -28
121 -55 220 -31 360 80 474 57 59 125 95 208 111 165 33 340 -55 418 -210 25
-49 45 -132 45 -184 0 -19 22 -81 50 -142 l49 -109 -44 -3 -45 -3 0 -129 c0
-127 0 -129 -26 -149 -24 -19 -40 -21 -149 -21 -97 0 -125 3 -135 15 -7 8 -23
15 -35 15 -18 0 -22 -4 -18 -20 11 -43 50 -60 134 -60 l79 0 0 -70 c0 -68 1
-70 25 -70 24 0 25 2 25 70 0 64 2 70 20 70 39 0 90 29 110 62 17 28 20 50 20
141 l0 107 56 0 c41 0 55 3 51 13 -3 6 -29 64 -58 127 -40 87 -55 135 -65 203
-32 210 -168 360 -363 397 -67 13 -90 12 -168 -5z"/>
<path d="M990 1530 c0 -46 -13 -51 -55 -19 l-27 22 -50 -51 -51 -50 22 -27
c31 -40 27 -53 -16 -57 l-38 -3 -3 -72 -3 -71 41 -7 c46 -8 48 -15 18 -56
l-22 -30 52 -51 51 -52 31 29 c34 33 47 27 52 -25 l3 -35 73 -3 c66 -3 72 -1
72 17 0 11 5 32 10 46 l10 27 34 -25 33 -26 51 52 51 52 -25 28 c-30 35 -25
43 26 52 l41 7 -3 71 -3 72 -35 3 c-52 5 -58 18 -25 52 l29 31 -52 51 -51 52
-30 -22 c-42 -31 -50 -28 -57 18 l-7 40 -73 0 -74 0 0 -40z m110 -43 c0 -29 4
-33 41 -45 38 -12 44 -11 64 8 l22 20 18 -20 c18 -20 18 -21 -2 -48 -20 -28
-20 -28 -2 -65 16 -30 25 -37 49 -37 27 0 30 -3 30 -30 0 -27 -3 -30 -32 -30
-29 0 -35 -5 -49 -39 -16 -37 -16 -40 4 -59 21 -22 18 -48 -9 -59 -9 -3 -24 3
-36 14 -19 20 -22 20 -59 4 -34 -14 -39 -20 -39 -48 0 -30 -3 -33 -30 -33 -24
0 -30 4 -30 23 0 29 -9 41 -45 58 -27 14 -32 13 -57 -5 -27 -19 -28 -19 -48
-1 l-20 18 21 23 c20 22 21 25 6 61 -12 31 -20 39 -46 41 -27 3 -31 7 -31 32
0 25 4 29 31 32 26 2 34 10 46 41 15 36 14 39 -6 60 l-21 23 22 22 22 22 23
-22 c20 -19 25 -20 55 -7 39 15 48 26 48 57 0 18 6 22 30 22 27 0 30 -3 30
-33z"/>
<path d="M1011 1366 c-55 -31 -68 -114 -25 -165 72 -85 211 -18 190 92 -13 71
-100 109 -165 73z m101 -53 c38 -34 11 -103 -40 -103 -53 0 -83 68 -46 104 20
21 63 20 86 -1z"/>
<path d="M757 763 c-14 -4 -17 -11 -13 -26 3 -12 6 -61 6 -109 0 -87 0 -88 25
-88 25 0 25 1 25 78 0 83 -9 153 -19 151 -3 -1 -14 -3 -24 -6z"/>
</g>
</svg>
